<svg xmlns="http://www.w3.org/2000/svg" width="1147" height="1766" viewBox="0 0 1147 1766">
  <defs>
    <linearGradient id="coverBg" x1="0" y1="0" x2="0" y2="1">
      <stop offset="0" stop-color="#5f6c92" />
      <stop offset="0.55" stop-color="#2a3763" />
      <stop offset="1" stop-color="#121d45" />
    </linearGradient>
    <linearGradient id="tower" x1="0" y1="0" x2="1" y2="1">
      <stop offset="0" stop-color="#b25a4a" />
      <stop offset="1" stop-color="#6d2e22" />
    </linearGradient>
  </defs>

  <rect width="1147" height="1766" fill="url(#coverBg)" />
  <rect x="0" y="1180" width="1147" height="586" fill="#0d1740" />

  <text x="574" y="180" text-anchor="middle" font-size="36" font-family="Arial, sans-serif" fill="#f5f6f8" letter-spacing="8">
    E-BOOK
  </text>

  <text x="150" y="520" font-size="140" font-family="Arial Black, Arial, sans-serif" fill="#f5f6f8">
    FIO
  </text>
  <rect x="610" y="410" width="200" height="200" rx="16" fill="#e50913" />
  <text x="685" y="555" font-size="140" font-family="Arial Black, Arial, sans-serif" fill="#f5f6f8">
    B
  </text>

  <text x="150" y="720" font-size="72" font-family="Arial Black, Arial, sans-serif" fill="#f5f6f8" letter-spacing="4">
    NA GERACAO
  </text>
  <text x="150" y="820" font-size="58" font-family="Arial Black, Arial, sans-serif" fill="#f5f6f8" letter-spacing="3">
    DISTRIBUIDA
  </text>
  <text x="770" y="820" font-size="58" font-family="Arial Black, Arial, sans-serif" fill="#e50913" letter-spacing="3">
    EM 2026
  </text>

  <g transform="translate(280 900)" opacity="0.7">
    <polygon points="140,0 280,340 0,340" fill="url(#tower)" />
    <polygon points="30,220 250,220 140,50" fill="#7c3b2f" />
    <rect x="130" y="200" width="20" height="420" fill="#552117" />
    <rect x="80" y="320" width="120" height="16" fill="#6a2c20" />
    <rect x="70" y="360" width="140" height="12" fill="#6a2c20" />
  </g>

  <rect x="420" y="1500" width="310" height="80" rx="12" fill="#e50913" />
  <text x="575" y="1554" text-anchor="middle" font-size="46" font-family="Arial Black, Arial, sans-serif" fill="#f5f6f8">
    canal solar
  </text>
</svg>
